# xmcd
#
# Track frame offsets:
#	150
#	17066
#	33007
#	50822
#	67139
#	82031
#	98497
#	112488
#	124679
#	140171
#	154838
#	171605
#	189197
#	205813
#	223930
#	240172
#	257464
#	274380
#
# Disc length: 3886 seconds
#
# Revision: 2
# Processed by: cddbd v1.5.2PL0 Copyright (c) Steve Scherf et al.
# Submitted via: audiograbber 1.83.01
#
DISCID=0f0f2c12
DTITLE=Various Artist - Promo Only Country Radio 2011 - 05
DYEAR=2011
DGENRE=Country
TTITLE0=Steve Azar - Hard Road
TTITLE1=Walker Hayes - Why Wait for Summer
TTITLE2=Martina McBride - Teenage Daughters
TTITLE3=Frankie Ballard - A Buncha Girls
TTITLE4=Ashley Gearing - Five More Minutes
TTITLE5=Gloriana - Wanna Take You Home
TTITLE6=Glen Templeton - I Could Be the One
TTITLE7=Bradley Geskin - Mr. Bartender
TTITLE8=The JaneDear Girls - Shotgun Girl
TTITLE9=Heidi Newfield - Stay Up Late
TTITLE10=River Band - Good Things
TTITLE11=Little Big Town - The Reason Why
TTITLE12=Kenny Chesney - Live A Little (Album Version)
TTITLE13=Tim McGraw and Gwyneth Paltrow - Me and Tennessee
TTITLE14=Kip Moore - Mary Was the Marrying Kind
TTITLE15=Edens Edge - Amen
TTITLE16=Due West - When the Smoke Clears
TTITLE17=Johnnw Patton - Phone in Heaven
EXTD=
EXTT0=
EXTT1=
EXTT2=
EXTT3=
EXTT4=
EXTT5=
EXTT6=
EXTT7=
EXTT8=
EXTT9=
EXTT10=
EXTT11=
EXTT12=
EXTT13=
EXTT14=
EXTT15=
EXTT16=
EXTT17=
PLAYORDER=
